<svg width="125" height="33" viewBox="0 0 125 33" fill="none" xmlns="http://www.w3.org/2000/svg">
<path d="M16 0.774658C3.55556 0.774658 0 4.33021 0 16.7747C0 29.2191 3.56444 32.7747 16 32.7747C28.4356 32.7747 32 29.2191 32 16.7747C32 4.33021 28.4356 0.774658 16 0.774658Z" fill="#00AA45"/>
<path fill-rule="evenodd" clip-rule="evenodd" d="M4.14146 4.91611C2.05 7.00757 1.14286 10.5763 1.14286 16.7747C1.14286 22.9724 2.05205 26.5414 4.14461 28.633C6.23729 30.7248 9.8064 31.6318 16 31.6318C22.1936 31.6318 25.7627 30.7248 27.8554 28.633C29.948 26.5414 30.8571 22.9724 30.8571 16.7747C30.8571 10.5769 29.948 7.0079 27.8554 4.9163C25.7627 2.82456 22.1936 1.91752 16 1.91752C9.80169 1.91752 6.23291 2.82466 4.14146 4.91611ZM0 16.7747C0 4.33021 3.55556 0.774658 16 0.774658C28.4356 0.774658 32 4.33021 32 16.7747C32 29.2191 28.4356 32.7747 16 32.7747C3.56444 32.7747 0 29.2191 0 16.7747Z" fill="#219653"/>
<path fill-rule="evenodd" clip-rule="evenodd" d="M15.4725 8.20325H8.57141V27.6318H13.934V23.5683H15.4725C19.846 23.5683 23.4286 20.1489 23.4286 15.8858C23.4286 11.6227 19.846 8.20325 15.4725 8.20325ZM13.934 18.362V13.4096H15.4725C16.9253 13.4096 18.0659 14.5384 18.0659 15.8858C18.0659 17.2332 16.9253 18.362 15.4725 18.362H13.934Z" fill="#24292E"/>
<path fill-rule="evenodd" clip-rule="evenodd" d="M10.2856 7.63177H16.6153C20.6937 7.63177 23.9999 10.8155 23.9999 14.7429C23.9999 18.6702 20.6937 21.854 16.6153 21.854H14.5054V25.9175H10.2856V7.63177ZM14.5054 17.7905H16.6153C18.3632 17.7905 19.7802 16.426 19.7802 14.7429C19.7802 13.0597 18.3632 11.6953 16.6153 11.6953H14.5054V17.7905Z" fill="white"/>
<path fill-rule="evenodd" clip-rule="evenodd" d="M9.71423 7.06036H16.6153C20.9888 7.06036 24.5714 10.4798 24.5714 14.7429C24.5714 19.006 20.9888 22.4254 16.6153 22.4254H15.0769V26.4889H9.71423V7.06036ZM10.8571 8.20322V25.3461H13.934V21.2826H16.6153C20.3987 21.2826 23.4285 18.3345 23.4285 14.7429C23.4285 11.1513 20.3987 8.20322 16.6153 8.20322H10.8571ZM13.934 11.1239H16.6153C18.6583 11.1239 20.3516 12.724 20.3516 14.7429C20.3516 16.7618 18.6583 18.362 16.6153 18.362H13.934V11.1239ZM15.0769 12.2667V17.2191H16.6153C18.0681 17.2191 19.2087 16.0903 19.2087 14.7429C19.2087 13.3955 18.0681 12.2667 16.6153 12.2667H15.0769Z" fill="#24292E"/>
<path d="M53.7808 14.8517C53.7808 15.8998 53.5107 16.8069 52.9706 17.5728C52.4384 18.3387 51.6806 18.9313 50.6969 19.3506C49.7214 19.7698 48.5684 19.9795 47.2381 19.9795C46.3513 19.9795 45.541 19.8867 44.8073 19.7013C44.0736 19.5159 43.4326 19.2538 42.8844 18.9152L43.0537 17.8389C43.3439 18.0404 43.6584 18.2097 43.997 18.3468C44.3356 18.4758 44.6944 18.5766 45.0734 18.6492C45.4523 18.7137 45.8473 18.7459 46.2585 18.7459C47.0003 18.7459 47.6614 18.5927 48.2419 18.2863C48.8224 17.98 49.2779 17.5285 49.6085 16.9318C49.9391 16.3352 50.1043 15.6096 50.1043 14.755C50.1043 13.7633 49.9068 12.9046 49.5117 12.179C49.1247 11.4534 48.5765 10.889 47.867 10.4859C47.1575 10.0828 46.323 9.88121 45.3636 9.88121H44.4082V23.5955C44.4082 23.7729 44.4566 23.926 44.5533 24.055C44.6501 24.176 44.8033 24.2526 45.0129 24.2848L46.065 24.43C46.2666 24.4703 46.4117 24.5388 46.5004 24.6355C46.5891 24.7323 46.6334 24.8734 46.6334 25.0588C46.6334 25.2281 46.573 25.3652 46.452 25.47C46.3392 25.5668 46.1578 25.6151 45.9078 25.6151H39.5949C39.345 25.6151 39.1595 25.5668 39.0386 25.47C38.9176 25.3652 38.8572 25.2281 38.8572 25.0588C38.8572 24.7525 39.0265 24.5469 39.3651 24.442L40.0666 24.2848C40.26 24.2284 40.4052 24.1437 40.5019 24.0309C40.6067 23.918 40.6591 23.7729 40.6591 23.5955V10.7036C40.6591 10.5262 40.6067 10.3811 40.5019 10.2682C40.4052 10.1553 40.26 10.0707 40.0666 10.0142L39.3651 9.85702C39.0265 9.75221 38.8572 9.54661 38.8572 9.24024C38.8572 9.06287 38.9176 8.9258 39.0386 8.82905C39.1595 8.7323 39.345 8.68393 39.5949 8.68393H45.4603C47.218 8.68393 48.7176 8.94999 49.9592 9.48211C51.2008 10.0062 52.1482 10.7358 52.8012 11.6711C53.4543 12.5983 53.7808 13.6585 53.7808 14.8517Z" fill="#0D0D0D"/>
<path d="M65.4592 18.4677C65.4592 18.8951 65.3383 19.2256 65.0964 19.4594C64.8545 19.6852 64.4998 19.7981 64.0321 19.7981H56.4857V18.8789H61.432C61.8432 18.8789 62.0488 18.6935 62.0488 18.3226C62.0488 17.2584 61.8553 16.4521 61.4683 15.9039C61.0813 15.3476 60.5613 15.0694 59.9082 15.0694C59.4083 15.0694 58.9649 15.2226 58.5779 15.529C58.1909 15.8353 57.8885 16.2748 57.6709 16.8472C57.4532 17.4116 57.3443 18.0969 57.3443 18.9031C57.3443 20.4592 57.7071 21.6282 58.4328 22.4103C59.1664 23.1924 60.142 23.5834 61.3594 23.5834C62.0689 23.5834 62.6897 23.4423 63.2219 23.1601C63.7621 22.8779 64.1813 22.4748 64.4796 21.9507C64.6247 21.7895 64.7376 21.6806 64.8182 21.6242C64.9069 21.5678 64.9956 21.5396 65.0843 21.5396C65.2133 21.5396 65.306 21.6 65.3625 21.721C65.4189 21.8338 65.4471 21.9709 65.4471 22.1321C65.4149 22.8094 65.173 23.4383 64.7215 24.0188C64.27 24.5912 63.6613 25.0508 62.8953 25.3974C62.1294 25.7441 61.2506 25.9175 60.2589 25.9175C59.0898 25.9175 58.0538 25.6796 57.1508 25.204C56.2478 24.7202 55.5383 24.047 55.0223 23.1843C54.5144 22.3136 54.2604 21.2977 54.2604 20.1367C54.2604 18.9192 54.5023 17.8389 54.986 16.8956C55.4779 15.9523 56.1793 15.2145 57.0904 14.6824C58.0014 14.1503 59.0898 13.8842 60.3557 13.8842C61.436 13.8842 62.3552 14.0818 63.113 14.4768C63.879 14.8638 64.4595 15.404 64.8545 16.0974C65.2576 16.7827 65.4592 17.5728 65.4592 18.4677Z" fill="#0D0D0D"/>
<path d="M77.8723 18.4677C77.8723 18.8951 77.7513 19.2256 77.5095 19.4594C77.2676 19.6852 76.9128 19.7981 76.4452 19.7981H68.8987V18.8789H73.8451C74.2563 18.8789 74.4619 18.6935 74.4619 18.3226C74.4619 17.2584 74.2684 16.4521 73.8814 15.9039C73.4944 15.3476 72.9743 15.0694 72.3213 15.0694C71.8214 15.0694 71.378 15.2226 70.991 15.529C70.604 15.8353 70.3016 16.2748 70.0839 16.8472C69.8662 17.4116 69.7574 18.0969 69.7574 18.9031C69.7574 20.4592 70.1202 21.6282 70.8458 22.4103C71.5795 23.1924 72.5551 23.5834 73.7725 23.5834C74.482 23.5834 75.1028 23.4423 75.6349 23.1601C76.1751 22.8779 76.5944 22.4748 76.8927 21.9507C77.0378 21.7895 77.1507 21.6806 77.2313 21.6242C77.32 21.5678 77.4087 21.5396 77.4974 21.5396C77.6264 21.5396 77.7191 21.6 77.7755 21.721C77.832 21.8338 77.8602 21.9709 77.8602 22.1321C77.8279 22.8094 77.5861 23.4383 77.1346 24.0188C76.6831 24.5912 76.0743 25.0508 75.3084 25.3974C74.5425 25.7441 73.6637 25.9175 72.672 25.9175C71.5029 25.9175 70.4669 25.6796 69.5639 25.204C68.6609 24.7202 67.9514 24.047 67.4354 23.1843C66.9275 22.3136 66.6735 21.2977 66.6735 20.1367C66.6735 18.9192 66.9154 17.8389 67.3991 16.8956C67.8909 15.9523 68.5924 15.2145 69.5034 14.6824C70.4145 14.1503 71.5029 13.8842 72.7687 13.8842C73.8491 13.8842 74.7682 14.0818 75.5261 14.4768C76.292 14.8638 76.8725 15.404 77.2676 16.0974C77.6707 16.7827 77.8723 17.5728 77.8723 18.4677Z" fill="#0D0D0D"/>
<path d="M83.5129 19.2055C83.5129 18.0364 83.6782 17.0568 84.0087 16.2667C84.3393 15.4766 84.7746 14.884 85.3148 14.4889C85.855 14.0858 86.4355 13.8842 87.0563 13.8842C87.8223 13.8842 88.4149 14.1019 88.8341 14.5373C89.2534 14.9727 89.463 15.5975 89.463 16.4118C89.463 17.1374 89.3138 17.6776 89.0155 18.0324C88.7172 18.3871 88.3302 18.5645 87.8545 18.5645C87.3708 18.5645 87.0039 18.4355 86.754 18.1775C86.5041 17.9195 86.3791 17.5607 86.3791 17.1012V16.6658C86.371 16.4078 86.3106 16.2183 86.1977 16.0974C86.0848 15.9684 85.8994 15.9039 85.6414 15.9039C85.3592 15.9039 85.0851 16.0208 84.819 16.2546C84.561 16.4884 84.3473 16.8432 84.178 17.3188C84.0168 17.7945 83.9361 18.4032 83.9361 19.145L83.5129 19.2055ZM83.7426 14.7187L83.9361 17.464V23.668C83.9361 23.9019 83.9805 24.0752 84.0692 24.1881C84.1659 24.2929 84.3352 24.3655 84.5771 24.4058L85.6172 24.563C85.8026 24.5952 85.9397 24.6557 86.0284 24.7444C86.1251 24.8331 86.1735 24.954 86.1735 25.1072C86.1735 25.2684 86.113 25.3934 85.9921 25.4821C85.8792 25.5708 85.7139 25.6151 85.4962 25.6151H79.8485C79.6227 25.6151 79.4574 25.5708 79.3526 25.4821C79.2478 25.3934 79.1954 25.2725 79.1954 25.1193C79.1954 24.9984 79.2317 24.8976 79.3043 24.817C79.3768 24.7283 79.4897 24.6557 79.6429 24.5993L80.1145 24.4783C80.2597 24.43 80.3645 24.3493 80.429 24.2365C80.5015 24.1155 80.5378 23.9301 80.5378 23.6801V16.7746C80.5378 16.565 80.5056 16.4158 80.4411 16.3272C80.3846 16.2385 80.2879 16.182 80.1508 16.1578L79.5098 16.1095C79.3647 16.0772 79.2599 16.0248 79.1954 15.9523C79.1309 15.8797 79.0987 15.787 79.0987 15.6741C79.0987 15.537 79.139 15.4282 79.2196 15.3476C79.3002 15.2669 79.4453 15.1863 79.655 15.1057L81.856 14.3075C82.2511 14.1543 82.5413 14.0576 82.7268 14.0173C82.9122 13.9689 83.0573 13.9447 83.1621 13.9447C83.3395 13.9447 83.4726 14.0052 83.5612 14.1261C83.6499 14.239 83.7104 14.4365 83.7426 14.7187Z" fill="#0D0D0D"/>
<path d="M95.0386 8.40577V23.6801C95.0386 23.9301 95.0708 24.1155 95.1353 24.2365C95.2079 24.3493 95.3167 24.43 95.4618 24.4783L95.9214 24.5993C96.0746 24.6476 96.1875 24.7162 96.26 24.8049C96.3326 24.8855 96.3689 24.9903 96.3689 25.1193C96.3689 25.2725 96.3165 25.3934 96.2117 25.4821C96.1068 25.5708 95.9375 25.6151 95.7037 25.6151H90.9388C90.713 25.6151 90.5478 25.5708 90.4429 25.4821C90.3381 25.3934 90.2857 25.2725 90.2857 25.1193C90.2857 24.9984 90.322 24.8976 90.3946 24.817C90.4671 24.7283 90.58 24.6557 90.7332 24.5993L91.2049 24.4783C91.35 24.4219 91.4548 24.3372 91.5193 24.2244C91.5919 24.1115 91.6281 23.9301 91.6281 23.6801V10.4375C91.6281 10.236 91.5959 10.0908 91.5314 10.0021C91.4749 9.91346 91.3782 9.85702 91.2411 9.83283L90.6002 9.78446C90.455 9.74415 90.3502 9.68771 90.2857 9.61515C90.2212 9.54258 90.189 9.44986 90.189 9.33699C90.189 9.20799 90.2293 9.10318 90.3099 9.02255C90.3905 8.94193 90.5357 8.8613 90.7453 8.78068L92.9947 7.95831C93.3172 7.83737 93.5712 7.75271 93.7566 7.70434C93.9421 7.65596 94.1033 7.63177 94.2404 7.63177C94.5064 7.63177 94.704 7.70434 94.833 7.84946C94.97 7.98652 95.0386 8.17196 95.0386 8.40577Z" fill="#0D0D0D"/>
<path d="M102.279 14.7066V23.6801C102.279 23.9301 102.311 24.1155 102.375 24.2365C102.448 24.3493 102.557 24.43 102.702 24.4783L103.162 24.5993C103.315 24.6476 103.428 24.7162 103.5 24.8049C103.573 24.8855 103.609 24.9903 103.609 25.1193C103.609 25.2725 103.557 25.3934 103.452 25.4821C103.347 25.5708 103.178 25.6151 102.944 25.6151H98.179C97.9532 25.6151 97.7879 25.5708 97.6831 25.4821C97.5783 25.3934 97.5259 25.2725 97.5259 25.1193C97.5259 24.9984 97.5622 24.8976 97.6347 24.817C97.7073 24.7283 97.8202 24.6557 97.9734 24.5993L98.445 24.4783C98.5901 24.4219 98.695 24.3372 98.7595 24.2244C98.832 24.1115 98.8683 23.9301 98.8683 23.6801V16.7504C98.8683 16.5408 98.8361 16.3917 98.7716 16.303C98.7151 16.2143 98.6184 16.1578 98.4813 16.1337L97.8403 16.0853C97.6952 16.053 97.5904 16.0006 97.5259 15.9281C97.4614 15.8555 97.4291 15.7628 97.4291 15.6499C97.4291 15.5128 97.4654 15.404 97.538 15.3234C97.6186 15.2428 97.7678 15.1621 97.9855 15.0815L100.235 14.2591C100.549 14.1463 100.799 14.0656 100.985 14.0173C101.178 13.9689 101.339 13.9447 101.468 13.9447C101.743 13.9447 101.944 14.0173 102.073 14.1624C102.21 14.2994 102.279 14.4809 102.279 14.7066ZM100.307 12.0944C99.6625 12.0944 99.1424 11.9291 98.7474 11.5985C98.3604 11.2599 98.1669 10.8205 98.1669 10.2803C98.1669 9.74011 98.3604 9.30877 98.7474 8.98627C99.1424 8.65571 99.6625 8.49043 100.307 8.49043C100.961 8.49043 101.481 8.65571 101.868 8.98627C102.263 9.30877 102.46 9.74011 102.46 10.2803C102.46 10.8205 102.263 11.2599 101.868 11.5985C101.481 11.9291 100.961 12.0944 100.307 12.0944Z" fill="#0D0D0D"/>
<path d="M109.447 14.9727C108.891 14.9727 108.456 15.1138 108.141 15.3959C107.835 15.6701 107.682 16.0208 107.682 16.4481C107.682 16.7142 107.738 16.956 107.851 17.1737C107.972 17.3833 108.198 17.5768 108.528 17.7542C108.859 17.9316 109.343 18.0969 109.98 18.2501C111.221 18.5081 112.181 18.8306 112.858 19.2176C113.535 19.6046 114.007 20.052 114.273 20.56C114.539 21.0598 114.672 21.6202 114.672 22.241C114.672 23.3617 114.277 24.2566 113.487 24.9258C112.697 25.5869 111.548 25.9175 110.04 25.9175C109.508 25.9175 109.073 25.8691 108.734 25.7724C108.395 25.6837 108.117 25.595 107.899 25.5063C107.682 25.4095 107.488 25.3612 107.319 25.3612C107.15 25.3612 107.009 25.4095 106.896 25.5063C106.791 25.595 106.69 25.6837 106.593 25.7724C106.497 25.8691 106.368 25.9175 106.206 25.9175C106.061 25.9175 105.952 25.8772 105.88 25.7965C105.807 25.7159 105.739 25.5668 105.674 25.3491L104.876 22.9182C104.787 22.6361 104.759 22.4063 104.791 22.2289C104.832 22.0515 104.941 21.9266 105.118 21.854C105.303 21.7895 105.465 21.7935 105.602 21.8661C105.739 21.9306 105.868 22.0556 105.989 22.241C106.351 22.8699 106.738 23.3738 107.15 23.7527C107.561 24.1236 107.992 24.3937 108.444 24.563C108.903 24.7323 109.371 24.817 109.847 24.817C110.54 24.817 111.056 24.6759 111.395 24.3937C111.741 24.1115 111.915 23.7366 111.915 23.269C111.915 22.9868 111.842 22.7328 111.697 22.5071C111.552 22.2732 111.282 22.0636 110.887 21.8782C110.492 21.6847 109.919 21.5033 109.169 21.334C108.129 21.1082 107.299 20.818 106.678 20.4632C106.065 20.1004 105.622 19.665 105.348 19.1571C105.082 18.6492 104.949 18.0606 104.949 17.3914C104.949 16.69 105.13 16.0772 105.493 15.5532C105.856 15.0291 106.36 14.6219 107.005 14.3317C107.65 14.0334 108.395 13.8842 109.242 13.8842C109.79 13.8842 110.23 13.9326 110.56 14.0294C110.891 14.1261 111.161 14.2269 111.37 14.3317C111.588 14.4284 111.786 14.4768 111.963 14.4768C112.156 14.4768 112.31 14.4284 112.423 14.3317C112.535 14.2269 112.644 14.1261 112.749 14.0294C112.854 13.9326 112.983 13.8842 113.136 13.8842C113.257 13.8842 113.358 13.9286 113.438 14.0173C113.527 14.0979 113.592 14.243 113.632 14.4526L114.224 16.7625C114.281 17.0608 114.293 17.2947 114.261 17.464C114.237 17.6333 114.132 17.7542 113.946 17.8268C113.769 17.8993 113.612 17.8913 113.475 17.8026C113.338 17.7139 113.201 17.5567 113.063 17.3309C112.564 16.4763 111.995 15.8716 111.358 15.5169C110.729 15.1541 110.092 14.9727 109.447 14.9727Z" fill="#0D0D0D"/>
<path d="M116.614 15.3476L116.057 15.1783C115.864 15.1138 115.727 15.0412 115.646 14.9606C115.566 14.8719 115.525 14.7711 115.525 14.6582C115.525 14.497 115.578 14.376 115.683 14.2954C115.795 14.2067 115.945 14.1624 116.13 14.1624H116.868C117.061 14.1624 117.222 14.1261 117.351 14.0535C117.48 13.981 117.614 13.852 117.751 13.6665L119.069 11.8162C119.238 11.6066 119.399 11.4534 119.553 11.3566C119.706 11.2599 119.859 11.2115 120.012 11.2115C120.181 11.2115 120.314 11.2639 120.411 11.3687C120.508 11.4735 120.556 11.6267 120.556 11.8283V22.1684C120.556 22.7328 120.665 23.1641 120.883 23.4625C121.109 23.7608 121.419 23.9099 121.814 23.9099C122.112 23.9099 122.342 23.8535 122.503 23.7406C122.673 23.6197 122.806 23.4826 122.902 23.3294C122.999 23.1762 123.092 23.0432 123.181 22.9303C123.277 22.8094 123.398 22.7449 123.543 22.7368C123.664 22.7368 123.757 22.7771 123.822 22.8578C123.894 22.9384 123.93 23.0714 123.93 23.2569C123.922 23.7164 123.769 24.1437 123.471 24.5388C123.181 24.9339 122.773 25.2564 122.249 25.5063C121.725 25.7482 121.129 25.8691 120.46 25.8691C119.428 25.8691 118.617 25.6111 118.029 25.0951C117.448 24.571 117.158 23.785 117.158 22.7368V16.0611C117.158 15.8515 117.114 15.6983 117.025 15.6015C116.944 15.4967 116.807 15.4121 116.614 15.3476ZM119.214 15.3597V14.1624H123.217C123.402 14.1624 123.547 14.2027 123.652 14.2833C123.765 14.3559 123.822 14.4647 123.822 14.6099C123.822 14.8195 123.717 14.9969 123.507 15.142C123.298 15.2871 122.959 15.3597 122.491 15.3597H119.214Z" fill="#0D0D0D"/>
</svg>
