<svg width="24" height="24" viewBox="0 0 24 24" fill="none" xmlns="http://www.w3.org/2000/svg">
<path d="M10.5 11C11.5609 11 12.5783 10.5786 13.3284 9.82843C14.0786 9.07828 14.5 8.06087 14.5 7C14.5 5.93913 14.0786 4.92172 13.3284 4.17157C12.5783 3.42143 11.5609 3 10.5 3C9.43913 3 8.42172 3.42143 7.67157 4.17157C6.92143 4.92172 6.5 5.93913 6.5 7C6.5 8.06087 6.92143 9.07828 7.67157 9.82843C8.42172 10.5786 9.43913 11 10.5 11Z" stroke="#0D0D0D" stroke-width="1.5" stroke-linecap="round" stroke-linejoin="round"/>
<path d="M3.5 19V18C3.49976 16.819 3.79833 15.6571 4.36794 14.6225C4.93754 13.5879 5.75965 12.7142 6.75773 12.0828C7.75582 11.4515 8.89743 11.0829 10.0763 11.0114C11.2551 10.9399 12.4329 11.1678 13.5 11.674" stroke="#0D0D0D" stroke-width="1.5" stroke-linecap="round" stroke-linejoin="round"/>
<path d="M15.135 15.415L16.174 13.212C16.2021 13.149 16.2479 13.0955 16.3057 13.058C16.3636 13.0205 16.4311 13.0005 16.5 13.0005C16.569 13.0005 16.6365 13.0205 16.6943 13.058C16.7522 13.0955 16.7979 13.149 16.826 13.212L17.866 15.415L20.189 15.771C20.487 15.816 20.605 16.2 20.389 16.42L18.709 18.133L19.105 20.554C19.156 20.865 18.845 21.102 18.578 20.955L16.5 19.812L14.422 20.955C14.155 21.102 13.844 20.865 13.895 20.555L14.291 18.133L12.611 16.42C12.395 16.2 12.513 15.816 12.811 15.77L15.135 15.415Z" stroke="#0D0D0D" stroke-width="1.5" stroke-linecap="round" stroke-linejoin="round"/>
</svg>
