<svg width="24" height="24" viewBox="0 0 24 24" fill="none" xmlns="http://www.w3.org/2000/svg">
<path d="M21 7.26629V16.5603C21.0001 16.6674 20.9714 16.7726 20.9171 16.8649C20.8627 16.9572 20.7847 17.0333 20.691 17.0853L12.291 21.7513C12.202 21.8007 12.1018 21.8266 12 21.8266C11.8982 21.8266 11.798 21.8007 11.709 21.7513L3.309 17.0853C3.21532 17.0333 3.13725 16.9572 3.08292 16.8649C3.02858 16.7726 2.99995 16.6674 3 16.5603V7.26629C3.00013 7.15934 3.02884 7.05436 3.08317 6.96223C3.1375 6.8701 3.21547 6.79416 3.309 6.74229L11.709 2.07529C11.798 2.02591 11.8982 2 12 2C12.1018 2 12.202 2.02591 12.291 2.07529L20.691 6.74229C20.7845 6.79416 20.8625 6.8701 20.9168 6.96223C20.9712 7.05436 20.9999 7.15934 21 7.26629Z" stroke="#0D0D0D" stroke-width="1.5" stroke-linecap="round" stroke-linejoin="round"/>
<path d="M3.52832 7.20728L11.7083 11.7513C11.7975 11.8008 11.8978 11.8269 11.9998 11.8269C12.1018 11.8269 12.2022 11.8008 12.2913 11.7513L20.5003 7.19128M12.0003 20.9133V11.9133" stroke="#0D0D0D" stroke-width="1.5" stroke-linecap="round" stroke-linejoin="round"/>
<path d="M11.691 11.7423L3.891 7.4083C3.79964 7.35763 3.69663 7.3317 3.59217 7.33306C3.48771 7.33442 3.38541 7.36304 3.29541 7.41607C3.2054 7.46911 3.1308 7.54472 3.07899 7.63544C3.02718 7.72616 2.99995 7.82883 3 7.9333V16.5603C2.99995 16.6674 3.02858 16.7726 3.08292 16.8649C3.13725 16.9573 3.21532 17.0333 3.309 17.0853L11.109 21.4183C11.2004 21.469 11.3034 21.4949 11.4078 21.4935C11.5123 21.4922 11.6146 21.4636 11.7046 21.4105C11.7946 21.3575 11.8692 21.2819 11.921 21.1912C11.9728 21.1004 12.0001 20.9978 12 20.8933V12.2663C11.9999 12.1593 11.9712 12.0544 11.9168 11.9622C11.8625 11.8701 11.7845 11.7942 11.691 11.7423Z" stroke="#0D0D0D" stroke-width="1.5" stroke-linejoin="round"/>
</svg>
