<svg width="24" height="24" viewBox="0 0 24 24" fill="none" xmlns="http://www.w3.org/2000/svg">
<path d="M16.5 16.5L21 21M3 10.7143C3 11.7273 3.19954 12.7305 3.58721 13.6664C3.97489 14.6024 4.54312 15.4528 5.25946 16.1691C5.9758 16.8854 6.82622 17.4537 7.76216 17.8414C8.6981 18.229 9.70123 18.4286 10.7143 18.4286C11.7273 18.4286 12.7305 18.229 13.6664 17.8414C14.6024 17.4537 15.4528 16.8854 16.1691 16.1691C16.8854 15.4528 17.4537 14.6024 17.8414 13.6664C18.229 12.7305 18.4286 11.7273 18.4286 10.7143C18.4286 8.66833 17.6158 6.70617 16.1691 5.25946C14.7224 3.81275 12.7602 3 10.7143 3C8.66833 3 6.70617 3.81275 5.25946 5.25946C3.81275 6.70617 3 8.66833 3 10.7143V10.7143Z" stroke="#0D0D0D" stroke-width="1.5" stroke-linecap="round" stroke-linejoin="round"/>
</svg>
