<svg width="24" height="24" viewBox="0 0 24 24" fill="none" xmlns="http://www.w3.org/2000/svg">
<rect x="0.5" y="0.5" width="23" height="23" rx="11.5" fill="white"/>
<rect x="0.5" y="0.5" width="23" height="23" rx="11.5" stroke="#D1D5DA"/>
<path d="M17.625 6.375H13.875M17.625 6.375L12 12M17.625 6.375V10.125" stroke="#0D0D0D" stroke-width="1.5" stroke-linecap="round" stroke-linejoin="round"/>
<path d="M17.625 12.625V16.375C17.625 16.7065 17.4933 17.0245 17.2589 17.2589C17.0245 17.4933 16.7065 17.625 16.375 17.625H7.625C7.29348 17.625 6.97554 17.4933 6.74112 17.2589C6.5067 17.0245 6.375 16.7065 6.375 16.375V7.625C6.375 7.29348 6.5067 6.97554 6.74112 6.74112C6.97554 6.5067 7.29348 6.375 7.625 6.375H11.375" stroke="#0D0D0D" stroke-width="1.5" stroke-linecap="round"/>
</svg>
